<svg xmlns="http://www.w3.org/2000/svg" width="435.917" height="241.56"><g fill-rule="evenodd" clip-rule="evenodd"><path d="M33.577 0v70.991c10.808-12.886 23.762-19.378 38.789-19.378 7.738 0 14.677 1.471 20.882 4.413 6.236 2.911 10.902 6.651 14.037 11.192 3.167 4.573 5.309 9.593 6.459 15.125 1.154 5.501 1.729 14.071 1.729 25.679v75.914H81.896v-68.368c0-13.557-.609-22.161-1.886-25.805-1.28-3.678-3.52-6.557-6.749-8.699-3.232-2.173-7.26-3.262-12.119-3.262-5.565 0-10.556 1.406-14.903 4.158-4.413 2.78-7.61 6.939-9.624 12.502-2.048 5.565-3.073 13.783-3.039 24.655l-.035 64.818H0V0h33.577zm132.229 0v70.991c10.806-12.886 23.759-19.378 38.786-19.378 7.707 0 14.677 1.471 20.915 4.413 6.203 2.911 10.872 6.651 14.004 11.192 3.166 4.573 5.309 9.593 6.461 15.125 1.152 5.501 1.728 14.071 1.728 25.679v75.914h-33.546v-68.368c0-13.557-.638-22.161-1.917-25.805-1.281-3.678-3.517-6.557-6.749-8.699-3.198-2.173-7.261-3.262-12.121-3.262-5.564 0-10.551 1.406-14.902 4.158-4.378 2.78-7.576 6.939-9.624 12.502-2.015 5.565-3.036 13.783-3.036 24.655v64.818H132.26V0h33.546zM.097 240.952v-37.095h4.478v15.254h17.522l-.034-15.254h4.478v37.095h-4.478v-17.491H4.575v17.491zm49.821-8.666l4.285.576c-.675 2.782-1.917 4.892-3.741 6.396-1.823 1.535-4.16 2.302-7.004 2.302-3.582 0-6.396-1.215-8.503-3.645-2.08-2.398-3.135-5.821-3.135-10.17 0-4.509 1.056-8.026 3.166-10.521 2.112-2.494 4.891-3.74 8.251-3.74 3.26 0 5.915 1.214 7.995 3.645 2.077 2.463 3.132 5.885 3.132 10.329-.035.255 0 .671-.035 1.215H36.103c.159 2.941.927 5.212 2.271 6.78 1.377 1.566 3.069 2.365 5.118 2.365 1.499 0 2.81-.448 3.897-1.343 1.055-.864 1.92-2.27 2.529-4.189m-13.59-7.354H49.98c-.193-2.238-.702-3.967-1.567-5.086-1.312-1.758-3.035-2.621-5.146-2.621-1.887 0-3.486.672-4.766 2.078-1.312 1.407-2.014 3.295-2.173 5.629zm38.754 12.695c-1.502 1.439-2.973 2.461-4.409 3.038-1.409.607-2.911.895-4.541.895-2.72 0-4.765-.735-6.208-2.175-1.436-1.439-2.142-3.293-2.173-5.531 0-1.312.287-2.526.831-3.582.543-1.087 1.28-1.982 2.142-2.621a8.985 8.985 0 0 1 2.976-1.504c.799-.256 2.014-.448 3.675-.672 3.361-.447 5.791-.959 7.389-1.599.031-.607.031-1.022.031-1.183 0-1.855-.416-3.135-1.18-3.9-1.055-1.025-2.654-1.535-4.703-1.535-1.949 0-3.391.352-4.316 1.117-.928.736-1.63 2.08-2.048 3.967l-4.059-.607c.35-1.889.958-3.424 1.823-4.605.831-1.184 2.045-2.079 3.645-2.718 1.599-.607 3.419-.927 5.53-.927 2.08 0 3.775.256 5.084.799 1.312.543 2.273 1.215 2.879 2.014.609.832 1.056 1.855 1.281 3.135.128.768.225 2.174.225 4.189v6.074c0 4.223.062 6.908.255 8.027.157 1.12.543 2.174 1.056 3.229h-4.319c-.448-.96-.704-2.047-.866-3.325m-.318-10.169c-1.502.671-3.773 1.247-6.746 1.727-1.729.255-2.941.575-3.647.927-.671.32-1.25.832-1.599 1.473a4.07 4.07 0 0 0-.606 2.142c0 1.215.447 2.237 1.277 3.037.834.832 2.045 1.216 3.645 1.216 1.63 0 3.042-.352 4.285-1.119 1.218-.799 2.143-1.855 2.72-3.197.446-1.025.672-2.527.672-4.541v-1.665zm26.187 13.494v-3.39c-1.533 2.654-3.804 3.997-6.808 3.997-1.952 0-3.741-.575-5.375-1.792-1.63-1.182-2.907-2.812-3.772-4.922-.927-2.111-1.342-4.543-1.342-7.324 0-2.654.384-5.115 1.183-7.291.831-2.174 2.045-3.836 3.679-5.02 1.599-1.151 3.419-1.727 5.465-1.727 1.439 0 2.751.319 3.903 1.021a8.37 8.37 0 0 1 2.81 2.688v-13.336h4.098v37.095h-3.841m-13.047-13.43c-.031 3.453.644 6.043 1.955 7.739 1.343 1.694 2.876 2.558 4.666 2.558 1.823 0 3.36-.831 4.605-2.43 1.277-1.663 1.92-4.125 1.92-7.484 0-3.676-.674-6.362-1.954-8.089-1.277-1.696-2.876-2.558-4.763-2.558-1.82 0-3.356.83-4.606 2.461-1.211 1.663-1.854 4.254-1.823 7.803zm23.859 13.431v-37.095h4.443v15.254h17.522v-15.254h4.479v37.095h-4.479v-17.491h-17.522v17.491zm49.115 0v-3.965c-1.887 3.07-4.476 4.572-7.77 4.572-1.436 0-2.783-.287-4.027-.928-1.25-.574-2.174-1.374-2.783-2.271-.608-.928-1.021-2.045-1.278-3.39-.162-.896-.255-2.302-.255-4.252V214.09h4.152v14.901c0 2.366.101 3.964.257 4.796.255 1.215.8 2.143 1.632 2.814.866.703 1.887 1.023 3.133 1.023 1.248 0 2.43-.353 3.515-1.057a5.793 5.793 0 0 0 2.305-2.845c.449-1.216.672-2.941.672-5.245v-14.389h4.125v26.86h-3.678zm9.947 0v-26.86h3.709v3.805c1.789-2.941 4.413-4.412 7.804-4.412 1.438 0 2.81.287 4.029.863 1.245.574 2.172 1.342 2.778 2.27.609.959 1.056 2.078 1.281 3.39.162.831.255 2.302.255 4.413v16.532h-4.156v-16.341c0-1.854-.159-3.262-.478-4.156a4.343 4.343 0 0 0-1.699-2.207c-.831-.544-1.821-.832-2.911-.832-1.754 0-3.291.607-4.572 1.855-1.278 1.215-1.917 3.549-1.887 7.004l-.03 14.677h-4.123zm34.985-4.093l.606 4.029c-1.15.288-2.206.414-3.136.414-1.499 0-2.653-.254-3.485-.799-.83-.512-1.404-1.183-1.755-2.045-.321-.832-.481-2.654-.481-5.373v-15.477h-3.073v-3.518h3.073v-6.652l4.123-2.75-.032 9.402h4.16v3.518h-4.16v15.732c0 1.278.066 2.111.226 2.493.128.353.383.671.705.896.351.193.8.32 1.438.32.448.002 1.054-.062 1.791-.19zm20.56-4.573l4.253.576c-.672 2.782-1.918 4.892-3.741 6.427-1.824 1.504-4.159 2.271-6.971 2.271-3.584 0-6.43-1.215-8.506-3.645-2.111-2.398-3.166-5.821-3.166-10.17 0-4.509 1.087-8.026 3.198-10.521s4.859-3.74 8.219-3.74c3.259 0 5.946 1.214 8.025 3.645 2.046 2.463 3.102 5.885 3.102 10.329 0 .255-.032.671-.032 1.215h-18.228c.16 2.941.928 5.212 2.271 6.78 1.377 1.566 3.07 2.365 5.117 2.365 1.5 0 2.812-.448 3.897-1.343 1.056-.864 1.921-2.27 2.562-4.189m-13.591-7.354H226.4c-.192-2.238-.702-3.967-1.566-5.086-1.312-1.758-3.036-2.621-5.116-2.621-1.917 0-3.516.672-4.796 2.078-1.312 1.407-2.015 3.295-2.143 5.629zm22.768 16.02v-26.86h3.742v4.061c.928-1.919 1.789-3.166 2.619-3.773.8-.607 1.7-.895 2.624-.895 1.439 0 2.849.479 4.284 1.471l-1.436 4.22c-.994-.671-2.018-.991-3.039-.991-.897 0-1.695.289-2.434.896-.699.607-1.245 1.406-1.532 2.492-.478 1.6-.672 3.391-.672 5.311v14.069h-4.156z"/><path fill="#FFF" stroke="#FFF" stroke-width="1.02" stroke-linejoin="bevel" d="M290.581 135.554c0-36.677 29.772-66.482 66.481-66.482 36.678 0 66.45 29.805 66.45 66.482 0 36.679-29.772 66.45-66.45 66.45-36.708 0-66.481-29.772-66.481-66.45z"/><path fill="#B9433B" d="M435.917 133.252c0 44.672-36.196 80.84-80.837 80.84-44.642 0-80.841-36.168-80.841-80.84 0-44.642 36.199-80.84 80.841-80.84 44.641 0 80.837 36.198 80.837 80.84z"/><path d="M321.853 164.303h-15.701v-59.256h14.553v8.41c2.525-3.964 4.734-6.586 6.744-7.833 1.987-1.279 4.255-1.919 6.783-1.919 3.549 0 7.002.992 10.327 2.975l-4.861 13.655c-2.655-1.727-5.115-2.56-7.386-2.56-2.177 0-4.028.607-5.562 1.792-1.536 1.215-2.754 3.421-3.615 6.556-.861 3.198-1.281 9.816-1.281 19.889v18.291zm67.89 0v-8.857c-2.173 3.133-4.99 5.659-8.507 7.481s-7.226 2.718-11.161 2.718c-3.966 0-7.545-.863-10.679-2.623-3.168-1.758-5.466-4.188-6.877-7.385-1.405-3.135-2.107-7.516-2.107-13.111v-37.479h15.667v27.214c0 8.345.287 13.462.864 15.317.577 1.887 1.63 3.389 3.132 4.477 1.536 1.087 3.484 1.63 5.821 1.63 2.687.032 5.084-.735 7.195-2.173 2.143-1.472 3.581-3.295 4.35-5.469.8-2.174 1.185-7.515 1.185-15.988v-25.008h15.701v59.256h-14.584z" fill="#FFF"/></g></svg>