<?xml version="1.0" encoding="iso-8859-1"?><!DOCTYPE svg PUBLIC "-//W3C//DTD SVG 1.1//EN" "http://www.w3.org/Graphics/SVG/1.1/DTD/svg11.dtd"><svg xmlns="http://www.w3.org/2000/svg" xmlns:xlink="http://www.w3.org/1999/xlink"><symbol viewBox="0 0 512 512" id="010-piggy-bank" xmlns="http://www.w3.org/2000/svg"><path d="M422.503 270.613a7.451 7.451 0 0 0-7.451 7.451c0 5.217-4.244 9.461-9.461 9.461-5.216 0-9.461-4.244-9.461-9.461a7.451 7.451 0 0 0-14.902 0c0 13.434 10.93 24.363 24.363 24.363s24.363-10.93 24.363-24.363a7.45 7.45 0 0 0-7.451-7.451z"/><path d="M492.444 271.83l-20.972-6.718c-2.686-.861-4.803-3.005-5.662-5.736-4.42-14.053-11.09-27.246-19.825-39.214-3.981-5.455-8.408-10.664-13.244-15.623 3.094-13.573 4.776-28.934 4.558-42.205-.312-18.985-4.106-30.12-11.598-34.044-4.035-2.116-16.315-8.544-82.782 21.882a24.184 24.184 0 0 0-4.405 2.623 289.039 289.039 0 0 0-13.669-3.318c-.555-.121-1.127-.228-1.686-.346a101.505 101.505 0 0 0 9.122-37.737 7.45 7.45 0 0 0-7.111-7.777c-4.101-.204-7.594 2.998-7.777 7.11-.971 21.691-9.969 42.1-25.335 57.467a86.266 86.266 0 0 1-31.388 20.05 216.081 216.081 0 0 0-59.976 0 86.257 86.257 0 0 1-31.388-20.05c-16.394-16.394-25.423-38.191-25.423-61.376 0-23.186 9.029-44.982 25.423-61.376 16.394-16.395 38.192-25.424 61.376-25.424 23.184 0 44.982 9.029 61.376 25.424a86.76 86.76 0 0 1 16.181 22.343 7.45 7.45 0 0 0 10.007 3.304 7.45 7.45 0 0 0 3.304-10.006c-4.863-9.659-11.24-18.466-18.953-26.18-19.209-19.209-44.749-29.788-71.914-29.788s-52.705 10.579-71.914 29.788c-19.209 19.21-29.788 44.749-29.788 71.914s10.579 52.705 29.788 71.914a101.645 101.645 0 0 0 17.945 14.298l.006-.001a210.24 210.24 0 0 0-13.778 4.076 7.452 7.452 0 1 0 4.725 14.135c40.636-13.585 85.396-13.585 126.032 0a7.442 7.442 0 0 0 9.429-4.705 7.452 7.452 0 0 0-4.704-9.43 209.627 209.627 0 0 0-13.778-4.076l.006.001a101.609 101.609 0 0 0 17.945-14.298 102.041 102.041 0 0 0 12.986-15.944c2.054.399 4.093.817 6.102 1.253 2.676.581 5.34 1.205 7.98 1.86-.083.324-.168.647-.237.976-3.634 17.245-3.398 32.497.701 45.33 3.684 11.535 10.333 20.88 19.76 27.777 11.111 8.128 24.525 11.639 36.676 11.639 9.145 0 17.576-1.99 23.768-5.497 7.004-3.967 12.872-12.326 17.517-24.876a126.082 126.082 0 0 1 6.1 7.701c7.777 10.654 13.714 22.396 17.646 34.898 2.309 7.343 8.041 13.121 15.332 15.458l20.972 6.718a13.195 13.195 0 0 1 9.2 12.606v34.775a13.195 13.195 0 0 1-9.2 12.606l-33.789 10.823c-5.406 1.733-9.981 5.448-12.882 10.462-13.275 22.942-34.146 41.927-62.037 56.428a11.675 11.675 0 0 0-6.126 8.23l-10.822 57.303a3.35 3.35 0 0 1-3.289 2.724h-35.187a3.35 3.35 0 0 1-3.289-2.724l-5.994-31.669a11.708 11.708 0 0 0-13.314-9.417c-15.157 2.292-30.775 3.453-46.418 3.453-11.638 0-23.127-.649-34.15-1.93-6.095-.701-11.773 3.454-12.912 9.472l-5.696 30.091a3.35 3.35 0 0 1-3.289 2.724h-35.187a3.356 3.356 0 0 1-3.293-2.748l-10.42-54.122a11.697 11.697 0 0 0-6.012-8.135C96.25 401.595 71.12 359.191 71.12 304.351c0-27.708 6.062-52.209 18.017-72.825 11.156-19.239 27.45-35.146 48.429-47.281a7.453 7.453 0 0 0 2.719-10.182 7.454 7.454 0 0 0-10.181-2.719C89.425 194.876 64.89 231.18 58.135 277.29v-.001c-.717-.065-1.435-.127-2.15-.201.13-4.975-.77-9.995-2.73-14.867-4.323-10.746-13.203-18.502-22.624-19.759-7.424-.994-14.489 2.158-19.392 8.636-7.109 9.394-5.95 16.828-3.727 21.41 3.753 7.733 13.4 13.203 29.409 16.642a29.24 29.24 0 0 1-1.454 1.986c-9.459 11.863-20.603 14.486-27.839 14.733-4.236.143-7.628 3.544-7.628 7.783v.036c0 4.181 3.299 7.591 7.476 7.782.535.025 1.094.038 1.676.038 9.156 0 23.851-3.377 37.969-21.08 2.229-2.794 4.045-5.742 5.441-8.788 1.406.159 2.757.295 4.051.415l.001-.008a195.776 195.776 0 0 0-.395 12.304c0 31.028 7.397 58.693 21.984 82.23 13.45 21.7 32.707 39.468 57.255 52.83l10.13 52.616c1.629 8.608 9.17 14.856 17.931 14.856h35.187c8.761 0 16.302-6.248 17.931-14.856l5.15-27.208c10.696 1.133 21.77 1.707 32.965 1.707 15.36 0 30.702-1.07 45.654-3.182l5.429 28.685c1.63 8.608 9.171 14.855 17.931 14.855h35.187c8.761 0 16.302-6.248 17.932-14.859l10.537-55.791c29.768-15.741 52.206-36.419 66.704-61.475 1.045-1.806 2.654-3.131 4.53-3.732l33.788-10.823A28.055 28.055 0 0 0 512 333.403v-34.775a28.05 28.05 0 0 0-19.556-26.798zm-71.166-88.557c-2.868 24.526-10.561 45.506-18.291 49.884-8.786 4.977-29.071 5.938-44.301-5.203-15.248-11.154-20.323-31.212-14.678-58.006v-.001c.567-2.691 2.479-5.019 5.114-6.225 37.304-17.076 58.811-22.661 66.801-22.661 1.206 0 2.104.127 2.702.361 2.4 2.558 5.548 17.099 2.653 41.851zM20.921 266.001c-.771-1.59 1.049-4.385 2.203-5.911 1.829-2.416 3.514-2.91 4.787-2.91.269 0 .52.022.75.053 3.426.457 8.226 4.227 10.769 10.548a22.624 22.624 0 0 1 1.559 7.027c-10.315-2.137-18.329-5.218-20.068-8.807z"/><path d="M237.918 98.277V71.613c9.195.657 12.611 4.86 15.763 4.86 3.941 0 5.78-4.991 5.78-7.487 0-6.437-12.611-9.195-21.543-9.458V55.98c0-1.576-1.971-3.021-3.941-3.021-2.234 0-3.81 1.445-3.81 3.021v3.809c-12.479 1.314-24.958 7.882-24.958 24.433 0 16.814 13.136 21.543 24.958 25.746v30.869c-13.399-1.051-16.945-10.246-21.28-10.246-3.284 0-6.042 4.335-6.042 7.488 0 6.436 11.034 15.237 27.322 15.5v4.072c0 1.576 1.577 3.021 3.81 3.021 1.971 0 3.941-1.445 3.941-3.021v-4.466c14.187-1.971 23.907-10.903 23.907-27.06 0-17.864-12.479-23.645-23.907-27.848zm-6.963-2.495c-6.962-2.627-12.61-5.385-12.61-12.872 0-6.831 5.254-10.115 12.61-11.034v23.906zm6.174 44.792v-27.716c6.436 2.758 11.559 6.436 11.559 14.711 0 7.489-4.466 11.692-11.559 13.005z"/></symbol><symbol viewBox="0 0 511.999 511.999" id="018-briefcase-1" xmlns="http://www.w3.org/2000/svg"><path d="M486.087 120.265h-41.204a7.294 7.294 0 1 0 0 14.588h41.204c6.245 0 11.326 5.081 11.326 11.326v92.683c0 30.918-25.154 56.071-56.071 56.071h-16.453v-12.02c0-6.238-4.441-11.458-10.327-12.665a12.974 12.974 0 0 0-2.602-.263h-4.089v-35.569c0-6.291-5.118-11.409-11.41-11.409h-33.586c-6.291 0-11.409 5.118-11.409 11.409v35.569h-4.09c-.891 0-1.761.091-2.602.263-5.886 1.207-10.326 6.427-10.326 12.665v12.02H177.553v-12.02c0-6.238-4.44-11.458-10.326-12.665a12.974 12.974 0 0 0-2.602-.263h-4.09v-35.569c0-6.291-5.118-11.409-11.409-11.409H115.54c-6.291 0-11.409 5.118-11.409 11.409v35.569h-4.09c-.891 0-1.761.091-2.602.263-5.886 1.207-10.326 6.427-10.326 12.665v12.02H70.659c-30.918 0-56.071-25.154-56.071-56.071v-92.683c0-6.245 5.081-11.326 11.326-11.326h372.719a7.294 7.294 0 1 0 0-14.588h-35.496V87.861c0-22.195-18.057-40.251-40.252-40.251h-6.556c-1.776-4.714-6.321-8.083-11.649-8.083h-97.36c-5.328 0-9.872 3.369-11.648 8.083h-6.556c-22.195 0-40.251 18.057-40.251 40.251v32.405H25.913C11.625 120.265 0 131.89 0 146.179v205.222a7.294 7.294 0 0 0 14.588 0v-69.613c12.926 16.845 33.246 27.733 56.071 27.733h16.453v5.561c0 7.128 5.8 12.928 12.928 12.928h4.09v18.776c0 15.551 12.651 28.202 28.202 28.202 15.551 0 28.202-12.651 28.202-28.202V328.01h4.09c7.129 0 12.929-5.8 12.929-12.928v-5.561h156.895v5.561c0 7.128 5.8 12.928 12.928 12.928h4.09v18.776c0 15.551 12.652 28.202 28.202 28.202s28.202-12.651 28.202-28.202V328.01h4.089c7.129 0 12.929-5.8 12.929-12.928v-5.561h16.453c22.825 0 43.145-10.888 56.071-27.733V446.56c0 6.245-5.081 11.326-11.326 11.326H25.913c-6.245 0-11.326-5.081-11.326-11.326v-48.909a7.294 7.294 0 0 0-14.587 0v48.909c0 14.289 11.625 25.913 25.913 25.913h460.173c14.289 0 25.913-11.625 25.913-25.913V146.179c.001-14.289-11.623-25.914-25.912-25.914zM322.885 62.197c14.151 0 25.665 11.513 25.665 25.664v32.405h-12.643V87.861c0-7.181-5.842-13.022-13.021-13.022h-5.749V62.197h5.748zm-113.433-8.085h93.097V82.88h-93.097V54.112zm-13.765 35.314c1.787 4.693 6.321 8.042 11.633 8.042h97.359c5.312 0 9.846-3.349 11.633-8.042h5.005v30.839H190.681V89.426h5.006zm-32.235-1.565c0-14.151 11.513-25.664 25.664-25.664h5.749v12.642h-5.749c-7.18 0-13.022 5.842-13.022 13.022v32.405h-12.642V87.861zm-17.505 149.733v32.391h-27.23v-32.391h27.23zm0 109.192c0 7.507-6.107 13.615-13.615 13.615-7.507 0-13.615-6.107-13.615-13.615V328.01h27.23v18.776zm17.018-44.559v11.195h-61.267v-28.85h61.267v17.655zm203.089-64.633h27.23v32.391h-27.23v-32.391zm27.229 109.192c0 7.507-6.107 13.615-13.615 13.615-7.507 0-13.615-6.107-13.615-13.615V328.01h27.23v18.776zm17.019-44.559v11.195h-61.267v-28.85h61.267v17.655z"/></symbol><symbol viewBox="0 0 511.999 511.999" id="019-briefcase" xmlns="http://www.w3.org/2000/svg"><path d="M485.407 314.919a90.672 90.672 0 0 0-16.121-12.797h.001v-164.75c0-13.461-10.952-24.413-24.413-24.413H403.12a7.4 7.4 0 1 0 0 14.8h41.754c5.301 0 9.613 4.312 9.613 9.613v11.208H14.8v-11.208c0-5.301 4.313-9.613 9.614-9.613h331.783a7.4 7.4 0 1 0 0-14.8h-35.811V99.175c0-31.455-25.59-57.045-57.045-57.045h-57.393c-31.455 0-57.045 25.59-57.045 57.045v13.784H24.413C10.952 112.959 0 123.91 0 137.372V411.83c0 11.358 7.797 20.929 18.319 23.643 1.949.503 3.991.77 6.094.77h326.224l-.005-.007a91.58 91.58 0 0 0 6.374 7.083c17.7 17.7 40.95 26.55 64.2 26.55s46.5-8.85 64.2-26.55c17.149-17.148 26.593-39.948 26.593-64.2.001-24.251-9.443-47.052-26.592-64.2zm-296.825-201.96V99.175c0-9.575 7.79-17.365 17.365-17.365h57.393c9.575 0 17.365 7.79 17.365 17.365v13.784h-92.123zm-24.88-13.784c0-23.294 18.951-42.245 42.245-42.245h57.393c23.294 0 42.245 18.951 42.245 42.245v13.784h-10.08V99.175c0-17.736-14.429-32.165-32.165-32.165h-57.393c-17.735 0-32.165 14.429-32.165 32.165v13.784h-10.08V99.175zm177.173 322.269H24.413a9.596 9.596 0 0 1-2.856-.433c-3.911-1.219-6.758-4.874-6.758-9.181v-11.207h25.316a7.4 7.4 0 1 0 0-14.8H14.8V163.379h439.688v131.288c-32.607-12.796-71.172-6.057-97.481 20.252-19.403 19.403-28.145 45.474-26.279 70.904H87.039a7.4 7.4 0 1 0 0 14.8h245.983c-.033-.137-.057-.275-.09-.411a90.343 90.343 0 0 0 7.955 21.254l-.012-.022zm134.067 11.411c-29.63 29.629-77.841 29.629-107.471 0-29.63-29.63-29.63-77.841 0-107.471 14.815-14.815 34.275-22.222 53.735-22.222s38.92 7.408 53.735 22.222c14.354 14.353 22.258 33.437 22.258 53.735s-7.903 39.383-22.257 53.736z"/><path d="M303.223 206.021c-37.815-37.814-99.344-37.815-137.159 0s-37.815 99.344 0 137.16c18.907 18.908 43.743 28.361 68.579 28.361s49.672-9.454 68.58-28.361c37.815-37.815 37.815-99.344 0-137.16zm-10.464 126.695c-32.044 32.045-84.184 32.045-116.23 0-32.045-32.044-32.045-84.185 0-116.23 16.022-16.022 37.068-24.034 58.115-24.034s42.093 8.011 58.115 24.034c32.045 32.045 32.045 84.185 0 116.23zM454.369 361.607h-2.92v-7.993c0-16.826-13.689-30.515-30.515-30.515s-30.515 13.689-30.515 30.515v7.993h-2.92a7.4 7.4 0 0 0-7.4 7.4v43.578a7.4 7.4 0 0 0 7.4 7.4h66.871a7.4 7.4 0 0 0 7.4-7.4v-43.578a7.401 7.401 0 0 0-7.401-7.4zm-49.151-7.993c.001-8.665 7.051-15.715 15.716-15.715s15.715 7.05 15.715 15.715v7.993h-31.431v-7.993zm41.751 51.571h-52.071v-28.779H446.969v28.779z"/><path d="M240.293 268.91v-30.024c10.353.739 14.198 5.472 17.748 5.472 4.437 0 6.508-5.62 6.508-8.43 0-7.247-14.198-10.353-24.256-10.649v-3.993c0-1.775-2.219-3.402-4.437-3.402-2.514 0-4.289 1.627-4.289 3.402v4.289c-14.051 1.479-28.102 8.874-28.102 27.51 0 18.931 14.791 24.256 28.102 28.989v34.757c-15.086-1.182-19.079-11.536-23.96-11.536-3.698 0-6.804 4.881-6.804 8.431 0 7.247 12.424 17.157 30.764 17.453v4.584c0 1.775 1.775 3.402 4.289 3.402 2.219 0 4.437-1.627 4.437-3.402v-5.029c15.974-2.218 26.919-12.276 26.919-30.468 0-20.115-14.051-26.623-26.919-31.356zm-7.838-2.809c-7.839-2.958-14.199-6.064-14.199-14.494 0-7.691 5.916-11.389 14.199-12.424v26.918zm6.951 50.436v-31.208c7.248 3.106 13.016 7.247 13.015 16.565 0 8.431-5.028 13.164-13.015 14.643z"/></symbol><symbol viewBox="0 0 511.999 511.999" id="030-bank" xmlns="http://www.w3.org/2000/svg"><path d="M505.709 159.575L336.462 50.682a7.273 7.273 0 0 0-7.871 12.233l166.773 107.301h-38.878L266.64 48.07c-6.463-4.158-14.816-4.157-21.28 0L55.514 170.216H16.636L255.991 16.204l33.899 21.81a7.274 7.274 0 0 0 7.871-12.233l-33.899-21.81a14.56 14.56 0 0 0-15.723 0L6.291 159.575c-5.15 3.314-7.45 9.488-5.723 15.364 1.727 5.876 7.002 9.824 13.126 9.824h36.684V231.789c0 5.789 4.106 10.637 9.558 11.784v12.801c0 6.64 5.402 12.042 12.042 12.042h1v89.112a7.273 7.273 0 1 0 14.546 0v-96.385a7.273 7.273 0 0 0-7.273-7.273h-5.768v-10.04h51.513v10.038h-5.768a7.273 7.273 0 0 0-7.273 7.273v160.696a7.273 7.273 0 0 0 7.273 7.273h5.768v10.915H74.483V429.11h5.768a7.273 7.273 0 0 0 7.273-7.273v-18.59a7.273 7.273 0 1 0-14.546 0v11.317h-1c-6.64 0-12.042 5.401-12.042 12.041v12.801c-5.453 1.147-9.558 5.995-9.558 11.784v14.682H24.614c-8.04 0-14.581 6.541-14.581 14.581v15.299c0 8.04 6.541 14.581 14.581 14.581h462.772c8.04 0 14.581-6.541 14.581-14.581v-15.299c0-8.04-6.541-14.581-14.581-14.581h-25.764V451.19c0-5.789-4.106-10.637-9.558-11.784v-12.801c0-6.64-5.402-12.041-12.042-12.041h-1v-146.15h1c6.64 0 12.042-5.402 12.042-12.042v-12.801c5.453-1.147 9.558-5.995 9.558-11.784V184.761h36.684c6.124 0 11.399-3.948 13.126-9.824 1.727-5.874-.573-12.049-5.723-15.362zM253.23 60.303a5.131 5.131 0 0 1 5.54 0l170.833 109.914H82.398L253.23 60.303zM64.924 184.762h382.151v17.797H64.924v-17.797zm231.38 254.646v-12.801c0-6.64-5.402-12.041-12.042-12.041h-1v-146.15h1c6.64 0 12.042-5.402 12.042-12.042v-12.801c5.453-1.147 9.558-5.995 9.558-11.784v-14.683H361.9v14.683c0 5.789 4.106 10.637 9.558 11.784v12.801c0 6.64 5.402 12.042 12.042 12.042h1v146.15h-1c-6.64 0-12.042 5.401-12.042 12.041v12.801c-5.452 1.147-9.558 5.995-9.558 11.784v14.682h-56.038v-14.682c0-5.789-4.106-10.637-9.558-11.784zm-155.762 0v-12.801c0-6.64-5.402-12.041-12.042-12.041h-1v-146.15h1c6.64 0 12.042-5.402 12.042-12.042v-12.801c5.452-1.147 9.558-5.995 9.558-11.784v-14.683h56.039v14.683c0 5.789 4.106 10.637 9.558 11.784v12.801c0 6.64 5.402 12.042 12.042 12.042h1v146.15h-1c-6.64 0-12.042 5.401-12.042 12.041v12.801c-5.452 1.147-9.558 5.995-9.558 11.784v14.682H150.1v-14.682c0-5.789-4.106-10.637-9.558-11.784zm135.447-10.298h5.768v10.915h-51.513V429.11h5.768a7.273 7.273 0 0 0 7.273-7.273V261.142a7.274 7.274 0 0 0-7.273-7.274h-5.768V243.83h51.513v10.038h-5.768a7.273 7.273 0 0 0-7.273 7.273v160.696a7.273 7.273 0 0 0 7.273 7.273zM222.97 229.284h-2.285v-12.178h70.63v12.178h-2.285l-.016.001-.016-.001H222.97zm-2.285 224.929c.71.231 1.466.36 2.253.36h66.059a7.26 7.26 0 0 0 2.318-.384v11.684h-70.63v-11.66zM67.21 229.284h-2.285v-12.178h70.63v12.178H67.21zm-2.286 224.917a7.256 7.256 0 0 0 2.285.372h66.06c.799 0 1.566-.134 2.285-.372v11.672h-70.63v-11.672zm422.497 26.253l-.02 15.333-.015.001-462.807-.034.035-15.334 462.807.034zm-42.651-25.882c.807 0 1.58-.137 2.306-.379v11.68h-70.63v-11.665a7.247 7.247 0 0 0 2.265.364h66.059zm-52.998-200.703h-5.768V243.83h51.513v10.038h-5.768a7.273 7.273 0 0 0-7.273 7.273v160.696a7.274 7.274 0 0 0 7.273 7.274h5.768v10.915h-51.513v-10.915h5.768a7.273 7.273 0 0 0 7.273-7.273V261.142a7.273 7.273 0 0 0-7.273-7.273zm55.305-24.585h-2.286l-.01.001-.01-.001h-68.324v-12.178h70.63v12.178z"/><path d="M259.076 113.165V90.459c7.83.559 10.738 4.138 13.422 4.138 3.356 0 4.922-4.25 4.922-6.375 0-5.48-10.738-7.829-18.344-8.053v-3.02c0-1.343-1.677-2.573-3.355-2.573-1.902 0-3.244 1.231-3.244 2.573v3.244c-10.626 1.118-21.252 6.711-21.252 20.804 0 14.317 11.186 18.344 21.252 21.923v26.283c-11.409-.894-14.429-8.724-18.12-8.724-2.796 0-5.145 3.691-5.145 6.376 0 5.481 9.395 12.975 23.265 13.199v3.468c0 1.343 1.342 2.573 3.244 2.573 1.677 0 3.355-1.231 3.355-2.573v-3.803c12.08-1.677 20.357-9.283 20.357-23.041 0-15.212-10.626-20.134-20.357-23.713zm-5.927-2.125c-5.929-2.237-10.738-4.586-10.738-10.962 0-5.816 4.474-8.612 10.738-9.395v20.357zm5.257 38.141V125.58c5.48 2.349 9.842 5.481 9.843 12.528 0 6.375-3.803 9.955-9.843 11.073z"/></symbol><symbol viewBox="0 0 409.602 399.438" id="032-atm-machine" xmlns="http://www.w3.org/2000/svg"><defs><path id="ea" d="M-215-98.28h841.89V497H-215z"/></defs><clipPath id="eb"><use xlink:href="#ea" overflow="visible"/></clipPath><path clip-path="url(#eb)" d="M403.77 118.391a5.828 5.828 0 0 0-5.828 5.828v234.57a5.623 5.623 0 0 1-5.617 5.617H230.969a5.828 5.828 0 1 0 0 11.656h161.359c9.523 0 17.273-7.746 17.273-17.273v-234.57a5.828 5.828 0 0 0-5.831-5.828M392.328 0H17.273C7.75 0 0 7.75 0 17.273v341.516c0 9.523 7.75 17.273 17.273 17.273H29.34a5.828 5.828 0 0 0 5.828-5.832 5.828 5.828 0 0 0-5.828-5.828H17.273a5.62 5.62 0 0 1-5.613-5.613V17.273a5.62 5.62 0 0 1 5.613-5.617h375.055a5.622 5.622 0 0 1 5.613 5.617v69.809a5.828 5.828 0 0 0 5.828 5.828 5.828 5.828 0 0 0 5.832-5.828V17.273C409.602 7.75 401.852 0 392.328 0"/><path clip-path="url(#eb)" d="M300.801 229.5h-29.957c-6.25 0-11.336 5.086-11.336 11.336v29.957c0 6.25 5.086 11.332 11.336 11.332h29.957c6.25 0 11.336-5.082 11.336-11.332v-29.957c0-6.25-5.086-11.336-11.336-11.336m-.324 40.969h-29.309V241.16h29.309v29.309zM365.805 229.5h-29.961c-6.246 0-11.332 5.086-11.332 11.336v29.957c0 6.25 5.086 11.332 11.332 11.332h29.961c6.25 0 11.332-5.082 11.332-11.332v-29.957c0-6.25-5.082-11.336-11.332-11.336m-.325 40.969h-29.312V241.16h29.312v29.309zM300.801 293.125h-29.957c-6.25 0-11.336 5.086-11.336 11.336v29.957c0 6.25 5.086 11.336 11.336 11.336h29.957c6.25 0 11.336-5.086 11.336-11.336v-29.957c0-6.25-5.086-11.336-11.336-11.336m-.324 40.969h-29.309v-29.309h29.309v29.309zM365.805 293.125h-29.961c-6.246 0-11.332 5.086-11.332 11.336v29.957c0 6.25 5.086 11.336 11.332 11.336h29.961c6.25 0 11.332-5.086 11.332-11.336v-29.957c0-6.25-5.082-11.336-11.332-11.336m-.325 40.969h-29.312v-29.309h29.312v29.309zM377.137 49.75c0-9.258-7.527-16.785-16.781-16.785H49.247c-9.254 0-16.786 7.527-16.786 16.785v131.367c0 9.254 7.532 16.785 16.786 16.785h311.109c9.254 0 16.781-7.527 16.781-16.785V49.75zM365.48 181.117a5.13 5.13 0 0 1-5.125 5.125H49.247a5.13 5.13 0 0 1-5.125-5.125V49.75c0-2.828 2.3-5.129 5.125-5.129h311.109a5.134 5.134 0 0 1 5.125 5.129v131.367zM229.781 245.57c0-8.859-7.207-16.07-16.07-16.07H48.535c-8.863 0-16.074 7.211-16.074 16.07 0 8.863 7.211 16.074 16.074 16.074h8.438l-10.43 97.453-2.754 25.75a12.961 12.961 0 0 0-.019 2.559c.003.059 0 .117.007.172.012.098.032.195.047.293a12.669 12.669 0 0 0 3.184 6.965v.004c.004.004.012.008.015.012 2.266 2.512 5.477 4.098 8.989 4.484.558.062 1.121.102 1.695.102h146.832c4.172 0 8.07-1.676 10.699-4.602 2.469-2.75 3.613-6.297 3.219-9.992l-13.185-123.203h8.438c8.86.004 16.071-7.207 16.071-16.071m-181.246 4.414a4.419 4.419 0 0 1-4.414-4.414c0-2.43 1.981-4.41 4.414-4.41h10.629l-.945 8.824h-9.684zm33.828 137.793H57.707c-.871 0-1.609-.266-2.027-.734-.246-.27-.34-.578-.301-.957l3.016-28.163c13.621 2.44 23.992 14.375 23.992 28.69 0 .387-.008.778-.024 1.164m11.653 0c.011-.387.027-.777.027-1.164 0-20.324-14.938-37.223-34.406-40.301L70.891 241.16h120.464l11.254 105.152c-19.472 3.078-34.41 19.977-34.41 40.301 0 .387.02.777.031 1.164H94.016zm112.847-1.691c.043.379-.055.688-.298.957-.421.469-1.159.734-2.026.734h-24.66c-.012-.387-.02-.777-.02-1.164 0-14.312 10.371-26.25 23.993-28.69l3.011 28.163zm-2.84-136.102l-.945-8.824h10.633a4.416 4.416 0 0 1 4.414 4.41 4.418 4.418 0 0 1-4.414 4.414h-9.688z"/><path clip-path="url(#eb)" d="M186.25 295.801c-1.754-23.91-25.969-42.637-55.129-42.637-29.16 0-53.375 18.727-55.129 42.637-.801 10.949 3.184 21.746 11.223 30.394 10.473 11.271 26.476 17.731 43.906 17.731 17.434 0 33.434-6.461 43.906-17.731 8.039-8.648 12.028-19.445 11.223-30.394m-19.762 22.457c-8.273 8.902-21.164 14.008-35.367 14.008-14.203 0-27.094-5.105-35.367-14.008-5.891-6.34-8.707-13.813-8.133-21.605 1.309-17.848 20.414-31.833 43.5-31.833s42.191 13.985 43.504 31.833c.57 7.791-2.242 15.265-8.137 21.605"/><path clip-path="url(#eb)" d="M114.566 296.088h-7.814V288.9h7.814v-4.073h4.557v4.073h5.21v-4.073h4.559v4.073h23.441v13.658c0 1.469-.304 2.875-.911 4.217-.609 1.342-1.52 2.516-2.735 3.522-1.216 1.006-2.735 1.804-4.559 2.396-1.822.591-3.971.886-6.446.886-2.431 0-4.482-.286-6.153-.861-1.672-.575-3.051-1.365-4.136-2.372s-1.867-2.173-2.343-3.498c-.478-1.326-.717-2.756-.717-4.289v-6.47h-5.21v10.83h-4.557v-10.831zm16.93 6.47c0 .479.065.95.196 1.413.13.463.389.878.781 1.246.39.367.976.654 1.758.863.782.206 1.824.312 3.125.312 1.259 0 2.279-.105 3.061-.312.782-.209 1.377-.488 1.791-.839.412-.353.684-.76.813-1.223.131-.464.196-.951.196-1.461v-6.47h-11.721v6.471zM113.373 92.552c2.891 1.47 6.173 3.92 6.173 7.203 0 1.616-.636 2.939-1.812 4.164-.882.931-2.401 1.666-3.92 1.666-1.47 0-2.597-.441-4.41-1.764-2.057-1.47-3.723-2.205-6.124-2.205-2.94.049-5.39 1.127-7.202 3.332-1.96 2.45-2.842 5.831-2.842 11.171 0 5.341.882 8.819 2.842 11.269 1.861 2.254 4.164 3.332 7.202 3.332 2.401 0 4.067-.637 6.124-2.156 1.715-1.274 2.94-1.862 4.41-1.862 1.519 0 3.038.784 3.92 1.715 1.176 1.176 1.812 2.548 1.812 4.165 0 3.234-3.233 5.635-6.173 7.251-2.989 1.617-5.978 2.45-10.093 2.45-10.191 0-22.783-5.487-22.783-26.164 0-20.676 12.641-26.066 22.881-26.066 4.116 0 7.055.784 9.995 2.499M130.132 98.971c0-3.086.147-4.312.833-5.684.931-1.861 2.939-3.037 5.537-3.037 2.596 0 4.605 1.176 5.536 3.037.686 1.372.833 2.598.833 5.684v10.975h16.511V98.971c0-3.086.147-4.312.833-5.684.931-1.861 2.94-3.037 5.537-3.037s4.606 1.176 5.537 3.037c.685 1.372.832 2.598.832 5.684v34.396c0 3.086-.147 4.311-.832 5.683-.931 1.861-2.94 3.038-5.537 3.038s-4.606-1.177-5.537-3.038c-.686-1.372-.833-2.597-.833-5.683v-12.152h-16.511v12.152c0 3.086-.147 4.311-.833 5.683-.931 1.861-2.94 3.038-5.536 3.038-2.598 0-4.606-1.177-5.537-3.038-.686-1.372-.833-2.597-.833-5.683V98.971zM185.696 130.868l6.517-10.436c-4.605-2.842-7.398-7.84-7.398-13.769 0-9.407 7.006-16.021 16.952-16.021h17.001c1.862 0 4.214 0 5.978 1.764 1.764 1.764 1.764 4.115 1.764 5.977v34.984c0 3.086-.146 4.311-.833 5.683-.931 1.861-2.939 3.038-5.536 3.038s-4.605-1.177-5.536-3.038c-.687-1.372-.833-2.597-.833-5.683v-9.947h-9.064l-8.672 13.915c-1.96 3.136-3.332 4.753-6.076 4.753-1.127 0-2.254-.343-3.43-1.078-1.96-1.225-2.988-2.989-2.988-4.851-.001-1.568.636-2.843 2.154-5.291m18.227-17.394h9.849v-12.641h-9.75c-4.164 0-6.712 2.548-6.712 6.321-.001 3.772 2.595 6.32 6.613 6.32M274.971 101.47c-1.225.637-2.352.735-5.242.735h-6.859v31.161c0 3.087-.147 4.312-.833 5.684-.932 1.861-2.94 3.038-5.537 3.038s-4.605-1.177-5.536-3.038c-.687-1.372-.833-2.597-.833-5.684v-31.161h-6.859c-2.891 0-4.018-.098-5.243-.735-1.665-.882-2.792-2.646-2.792-5.047 0-2.4 1.127-4.164 2.792-5.046 1.226-.637 2.353-.735 5.243-.735h26.458c2.891 0 4.018.098 5.242.735 1.666.882 2.793 2.646 2.793 5.046-.001 2.401-1.128 4.165-2.794 5.047M287.321 93.288c.931-1.862 2.939-3.038 5.536-3.038s4.605 1.176 5.537 3.038c.686 1.372.833 2.597.833 5.683v10.094h11.759c10.093 0 17.051 6.663 17.051 16.266 0 9.604-6.958 16.365-17.051 16.365h-16.757c-1.861 0-4.214 0-5.978-1.764-1.764-1.764-1.764-4.115-1.764-5.977V98.97c.001-3.086.148-4.311.834-5.682m21.166 38.363c4.41 0 7.056-1.96 7.056-6.271 0-4.312-2.646-6.272-7.056-6.272h-9.26v12.543h9.26z"/></symbol><symbol viewBox="0 0 511.999 511.999" id="033-money-bag" xmlns="http://www.w3.org/2000/svg"><path d="M457.398 285.981c-11.402-26.543-28.457-54.162-50.689-82.088a7.307 7.307 0 0 0-11.431 9.101c21.423 26.909 37.806 53.406 48.695 78.755 13.19 30.705 18.345 59.883 15.321 86.724-3.128 27.765-15.412 51.218-36.513 69.709-17.224 15.095-40.362 27.041-68.771 35.508-49.139 14.645-97.347 13.686-97.829 13.674a10.385 10.385 0 0 0-.353 0c-.486.005-48.695.969-97.832-13.674-28.409-8.467-51.547-20.413-68.771-35.508-21.1-18.49-33.384-41.944-36.512-69.709-4.83-42.877 10.942-90.823 46.878-142.505 27.167-39.071 60.236-71.747 81.256-90.791H331.16c9.45 8.557 21.601 20.1 34.472 33.736a7.306 7.306 0 0 0 10.626-10.029 633.29 633.29 0 0 0-28.331-28.139c5.638-4.152 9.305-10.833 9.305-18.356 0-12.565-10.223-22.788-22.788-22.788h-2.087c8.22-12.034 18.916-28.607 26.823-44.133 10.905-21.414 14.097-35.734 10.044-45.067-2.406-5.54-7.359-9.126-13.947-10.098-9.777-1.445-22.678 2.481-39.009 7.452-18.44 5.611-39.341 11.972-60.265 11.972-20.925 0-41.825-6.361-60.265-11.972-16.331-4.97-29.233-8.896-39.011-7.452-6.588.972-11.541 4.558-13.946 10.098-4.053 9.333-.861 23.653 10.044 45.067 7.908 15.527 18.604 32.1 26.823 44.133h-2.087c-12.565 0-22.788 10.223-22.788 22.788 0 7.52 3.663 14.199 9.297 18.351-50.61 47.194-136.744 142.92-125.877 239.368 6.35 56.361 46.446 97.054 115.955 117.68 50.296 14.924 98.042 14.263 101.855 14.185.437.009 1.449.026 2.977.026 11.81 0 54.346-.997 98.877-14.211 69.509-20.625 109.605-61.318 115.956-117.68 3.311-29.393-2.211-61.062-16.415-94.127zM156.182 16.22c.197-.455.496-1.142 2.678-1.464 6.533-.961 19.206 2.892 32.623 6.975 18.454 5.616 41.421 12.605 64.519 12.605 23.099 0 46.065-6.989 64.519-12.605 13.417-4.083 26.095-7.934 32.622-6.975 2.182.322 2.48 1.009 2.678 1.464.649 1.493 5.108 16.37-37.457 77.946a33.862 33.862 0 0 0-3.059 5.434H196.7a33.785 33.785 0 0 0-3.059-5.434c-42.566-61.575-38.106-76.452-37.459-77.946zm21.38 97.991h156.882c4.509 0 8.177 3.668 8.177 8.177 0 4.509-3.668 8.177-8.177 8.177H177.562c-4.509 0-8.177-3.668-8.177-8.177 0-4.509 3.667-8.177 8.177-8.177z"/><path d="M340.012 233.931c-22.44-22.44-52.276-34.798-84.01-34.798-31.735 0-61.57 12.358-84.01 34.798-16.399 16.399-27.562 37.017-32.282 59.625a7.305 7.305 0 1 0 14.302 2.985c4.137-19.818 13.927-37.896 28.311-52.28 40.627-40.625 106.729-40.626 147.356 0 40.626 40.626 40.626 106.729 0 147.356-40.624 40.627-106.729 40.628-147.354.002-14.036-14.036-23.725-31.645-28.018-50.922a7.304 7.304 0 0 0-8.719-5.543 7.306 7.306 0 0 0-5.543 8.719c4.898 21.991 15.945 42.074 31.948 58.077 23.161 23.161 53.586 34.742 84.009 34.742 30.425 0 60.848-11.58 84.01-34.742 46.322-46.323 46.322-121.696 0-168.019z"/><path d="M263.794 312.021l-.654-.241v-40.655l1.071.076c8.412.601 13.595 3.194 17.379 5.087 2.229 1.116 3.99 1.997 5.535 1.997 4.877 0 7.428-6.457 7.428-9.918 0-4.708-5.524-7.672-10.159-9.33-5.464-1.955-13.047-3.249-20.283-3.462l-.971-.028v-6.143c0-1.687-2.395-3.406-4.746-3.406-2.813 0-4.555 1.768-4.555 3.406v6.455l-.896.094c-10.673 1.124-35.498 6.747-35.498 34.633 0 23.897 18.982 30.646 35.729 36.601l.665.237v46.8l-1.078-.084c-12.557-.984-19.277-6.701-24.183-10.875-2.667-2.27-4.774-4.062-6.769-4.062-4.023 0-7.811 5.587-7.811 9.918 0 8.553 15.137 21.22 38.857 21.603l.984.016v6.921c0 1.637 1.742 3.405 4.555 3.405 2.35 0 4.746-1.718 4.746-3.404v-7.383l.862-.12c21.606-3.001 33.999-17.022 33.999-38.468.001-24.996-16.897-33.303-34.207-39.67zm-8.805-3.131l-1.353-.511c-10.414-3.93-19.035-8.125-19.035-19.707 0-9.601 6.661-15.507 19.264-17.082l1.124-.14v37.44zm8.184 64.853l-1.182.219v-43.136l1.394.598c9.07 3.887 17.463 9.287 17.463 22.372 0 10.752-6.278 17.836-17.675 19.947z"/></symbol><symbol viewBox="0 0 512 512" id="035-credit-card" xmlns="http://www.w3.org/2000/svg"><path d="M173.354 266.922H51.456a7.303 7.303 0 0 0 0 14.606h121.898a7.303 7.303 0 0 0 0-14.606z"/><path d="M487.066 273.609a86.127 86.127 0 0 0-12.129-10.073h.001V118.301c0-14.022-11.407-25.429-25.429-25.429h-54.494a7.303 7.303 0 0 0 0 14.606h54.494c5.968 0 10.822 4.855 10.822 10.822v16.648H14.607V118.3c0-5.967 4.855-10.822 10.822-10.822h323.818a7.303 7.303 0 0 0 0-14.606H25.429C11.407 92.872 0 104.28 0 118.301v245.556c0 14.022 11.407 25.429 25.429 25.429h336.542a86.735 86.735 0 0 0 4.511 4.907c16.625 16.625 38.455 24.934 60.292 24.934 21.832 0 43.671-8.313 60.292-24.934 33.245-33.245 33.245-87.339 0-120.584zM14.607 149.556h445.725v45.909H14.607v-45.909zM25.429 374.68c-5.968 0-10.822-4.855-10.822-10.822V210.071h445.725v45.415l.001.001c-10.468-4.482-21.829-6.852-33.559-6.852-22.776 0-44.188 8.869-60.292 24.974-16.105 16.104-24.974 37.516-24.974 60.292 0 14.485 3.601 28.411 10.355 40.779H25.429zm451.309 9.185c-27.55 27.55-72.377 27.55-99.928 0-13.346-13.346-20.696-31.09-20.696-49.964s7.35-36.618 20.696-49.964c13.346-13.346 31.09-20.696 49.964-20.696s36.618 7.35 49.964 20.696c27.55 27.551 27.55 72.378 0 99.928z"/><path d="M267.974 315.851H123.14a7.303 7.303 0 0 0 0 14.606h144.834a7.303 7.303 0 0 0 0-14.606zM76.965 315.851H51.932a7.303 7.303 0 0 0 0 14.606h25.033a7.303 7.303 0 0 0 0-14.606zM459.773 319.557h-2.882v-7.889c0-16.606-13.511-30.117-30.117-30.117s-30.117 13.51-30.117 30.117v7.889h-2.882a7.303 7.303 0 0 0-7.303 7.303v43.01a7.303 7.303 0 0 0 7.303 7.303h65.998a7.303 7.303 0 0 0 7.303-7.303v-43.01a7.303 7.303 0 0 0-7.303-7.303zm-48.511-7.888c.001-8.552 6.959-15.51 15.511-15.51s15.51 6.958 15.51 15.51v7.889h-31.021v-7.889zm-10.184 50.898v-28.403H452.47v28.403h-51.392z"/></symbol><symbol viewBox="0 0 24 24" id="android" xmlns="http://www.w3.org/2000/svg"><path d="M22.146 9.227a1.478 1.478 0 1 0-2.956.002v6.19c0 .81.663 1.48 1.483 1.48.814 0 1.476-.67 1.476-1.48v-6.2h-.01zM5.393 8.032l.004 9.6c0 .885.704 1.59 1.573 1.59h1.063v3.28c0 .82.66 1.482 1.47 1.482s1.467-.66 1.48-1.468v-3.28h1.993v3.28a1.475 1.475 0 1 0 2.952-.007v-3.28h1.078c.87 0 1.573-.71 1.573-1.578v-9.63L5.35 8.03l.04.002zm9.648-2.93a.56.56 0 1 1-.002-1.118.56.56 0 0 1 .002 1.118m-6.06 0a.56.56 0 1 1 .56-.548.565.565 0 0 1-.57.567m6.29-2.9L16.29.33c.06-.105.014-.226-.076-.285a.219.219 0 0 0-.284.09l-1.05 1.9c-.868-.405-1.856-.63-2.89-.63s-2.018.215-2.892.603L8.064.105a.205.205 0 0 0-.278-.08c-.1.045-.136.18-.08.27l1.03 1.875c-2.03 1.047-3.4 3.04-3.4 5.33h13.328c0-2.29-1.368-4.283-3.396-5.33M3.33 7.742c-.817 0-1.48.665-1.48 1.483v6.192a1.48 1.48 0 0 0 2.961 0v-6.19c0-.815-.66-1.478-1.47-1.478"/></symbol><symbol viewBox="0 0 24 24" id="apple" xmlns="http://www.w3.org/2000/svg"><path d="M7.078 23.55a5.378 5.378 0 0 1-1.244-1.15c-.383-.463-.738-.95-1.064-1.454a14.065 14.065 0 0 1-1.78-3.636c-.5-1.502-.743-2.94-.743-4.347 0-1.57.34-2.94 1.002-4.09a5.78 5.78 0 0 1 2.1-2.182 5.6 5.6 0 0 1 2.84-.84c.35 0 .73.05 1.13.15.29.08.64.21 1.07.37.55.21.85.34.95.37.32.12.59.17.8.17.16 0 .39-.05.645-.13.145-.05.42-.14.81-.31.386-.14.692-.26.935-.35.37-.11.728-.21 1.05-.26.39-.06.777-.08 1.148-.05.71.05 1.36.2 1.94.42 1.02.41 1.843 1.05 2.457 1.96-.26.16-.5.346-.725.55-.487.43-.9.94-1.23 1.505a5.1 5.1 0 0 0-.644 2.52c.015 1.083.29 2.035.84 2.86a5.33 5.33 0 0 0 1.534 1.536c.31.21.582.355.84.45-.12.375-.252.74-.405 1.1-.347.807-.76 1.58-1.25 2.31-.432.63-.772 1.1-1.03 1.41-.402.48-.79.84-1.18 1.097-.43.285-.935.436-1.452.436-.35.015-.7-.03-1.034-.127-.29-.095-.576-.202-.856-.323a6.94 6.94 0 0 0-.905-.34 4.52 4.52 0 0 0-1.164-.147c-.4 0-.79.05-1.16.145-.31.088-.61.196-.907.325-.42.175-.695.29-.855.34a4.47 4.47 0 0 1-.99.175c-.52 0-1.004-.15-1.486-.45zm6.854-18.46c-.68.34-1.326.484-1.973.436-.1-.646 0-1.31.27-2.037.24-.62.56-1.18 1-1.68.46-.52 1.01-.95 1.63-1.26.66-.34 1.29-.52 1.89-.55.08.68 0 1.35-.25 2.07a5.938 5.938 0 0 1-1 1.76c-.435.52-.975.95-1.586 1.26z"/></symbol><symbol viewBox="0 0 381 382" id="cancel" xmlns="http://www.w3.org/2000/svg"><defs><path id="ja" d="M.06.04H381V382H.06z"/></defs><clipPath id="jb"><use xlink:href="#ja" overflow="visible"/></clipPath><path clip-path="url(#jb)" d="M309.199 310.039c-31.84 31.84-74.16 49.36-119.121 49.36-44.957 0-87.277-17.521-119.117-49.36-65.68-65.679-65.68-172.558 0-238.238 31.84-31.84 74.16-49.359 119.117-49.359 44.961 0 87.281 17.519 119.121 49.359 65.68 65.68 65.68 172.559 0 238.238zM324.48 56.52C288.559 20.602 240.879.84 190.078.84 139.281.84 91.602 20.602 55.68 56.52 19.762 92.442 0 140.121 0 190.918c0 50.801 19.762 98.481 55.68 134.402C91.602 361.238 139.281 381 190.078 381c50.801 0 98.48-19.762 134.402-55.68 35.918-35.921 55.68-83.602 55.68-134.402 0-50.797-19.762-98.476-55.68-134.398z"/><path d="M273.84 107.16a10.765 10.765 0 0 0-15.281 0l-68.48 68.481-68.476-68.481a10.766 10.766 0 0 0-15.282 0 10.766 10.766 0 0 0 0 15.282l68.481 68.476-68.481 68.481a10.764 10.764 0 0 0 0 15.28c2.078 2.082 4.879 3.199 7.602 3.199 2.719 0 5.519-1.039 7.598-3.199l68.48-68.48 68.48 68.48c2.078 2.082 4.879 3.199 7.598 3.199 2.801 0 5.523-1.039 7.602-3.199a10.764 10.764 0 0 0 0-15.28l-68.32-68.481 68.48-68.476a10.774 10.774 0 0 0-.001-15.282z"/></symbol><symbol viewBox="0 0 94 94.01" id="contactless" xmlns="http://www.w3.org/2000/svg"><path fill-rule="evenodd" clip-rule="evenodd" d="M65.586 93.916c-1.5-.435-3.021-2.22-3.341-3.925-.209-1.11.046-1.88 1.637-4.958 6.428-12.435 9.222-23.878 9.222-37.769 0-13.423-2.475-23.868-8.618-36.386-1.319-2.687-2.398-5.182-2.398-5.543 0-1.332 1.114-3.263 2.321-4.021 1.655-1.038 4.429-.844 5.757.402.51.48 1.836 2.656 2.945 4.836 4.396 8.633 7.409 18.104 8.896 27.963.921 6.101 1.104 17.665.368 23.25-1.356 10.304-4.076 19.497-8.431 28.504-2.632 5.444-4.283 7.685-5.667 7.685-.276 0-.728.068-1.002.153-.276.083-1.036-.002-1.689-.191m-17.893-9.361c-2.301-.669-3.961-3.493-3.296-5.608.161-.513 1.245-2.872 2.407-5.243 4.924-10.041 6.973-20.806 5.969-31.374-.825-8.684-2.381-14.16-6.301-22.173-2.631-5.376-2.754-6.209-1.223-8.374 1.453-2.058 5.082-2.392 6.989-.643 1.321 1.212 5.431 9.795 7.018 14.656 5.25 16.086 4.449 33.354-2.279 49.156-3.447 8.095-5.866 10.598-9.284 9.603m-18.451-9.493c-1.423-.642-2.646-2.145-2.979-3.661-.203-.923.146-1.944 1.832-5.361 6.199-12.55 6.265-24.64.205-36.9-2.66-5.384-2.719-6.456-.469-8.579 1.11-1.048 1.582-1.233 3.143-1.233 2.617 0 3.974 1.315 6.312 6.118 3.597 7.387 5.069 13.796 5.056 22.007-.012 8.44-1.387 14.234-5.23 22.024-2.2 4.46-3.288 5.639-5.49 5.94-.673.092-1.743-.068-2.38-.355M12.024 66.22c-1.126-.467-2.413-1.999-2.795-3.332-.427-1.489-.078-2.672 1.614-5.452 2.175-3.577 2.681-5.496 2.681-10.171 0-4.674-.506-6.594-2.681-10.171-.737-1.212-1.479-2.666-1.646-3.228-.699-2.358 1.264-5.247 3.902-5.742 2.236-.42 3.773.578 5.828 3.788 5.955 9.294 5.955 21.709-.002 30.925-2.1 3.251-4.443 4.4-6.901 3.383"/><path fill="none" d="M-373.945-250.636h841.89v595.28h-841.89z"/></symbol><symbol viewBox="0 0 512 512" id="download" xmlns="http://www.w3.org/2000/svg"><path d="M498.966 339.946c-7.197 0-13.034 5.837-13.034 13.034v49.804c0 28.747-23.388 52.135-52.135 52.135H78.203c-28.747 0-52.135-23.388-52.135-52.135V352.98c0-7.197-5.835-13.034-13.034-13.034C5.835 339.946 0 345.782 0 352.98v49.804c0 43.121 35.082 78.203 78.203 78.203h355.594c43.121 0 78.203-35.082 78.203-78.203V352.98c0-7.198-5.835-13.034-13.034-13.034z"/><path d="M419.833 391.3H92.167c-7.197 0-13.034 5.837-13.034 13.034s5.835 13.034 13.034 13.034h327.665c7.199 0 13.034-5.835 13.034-13.034 0-7.197-5.835-13.034-13.033-13.034zM387.919 207.93c-4.795-5.367-13.034-5.834-18.404-1.038l-100.482 89.765V44.048c0-7.197-5.835-13.034-13.034-13.034-7.197 0-13.034 5.835-13.034 13.034v252.609l-100.482-89.764c-5.367-4.796-13.607-4.328-18.404 1.038-4.794 5.369-4.331 13.609 1.037 18.404l109.174 97.527a32.496 32.496 0 0 0 21.708 8.292 32.517 32.517 0 0 0 21.708-8.289l109.174-97.53c5.37-4.798 5.834-13.038 1.039-18.405z"/></symbol><symbol viewBox="0 0 24 24" id="googleplay" xmlns="http://www.w3.org/2000/svg"><path d="M1.22 0c-.03.093-.06.185-.06.308v23.229c0 .217.061.34.184.463l11.415-12.093L1.22 0zm12.309 12.708l2.951 3.045-4.213 2.4s-5.355 3.044-8.308 4.739l9.57-10.184zm.801-.831l3.166 3.292c.496-.276 4.371-2.492 4.924-2.8.584-.338.525-.8.029-1.046-.459-.255-4.334-2.475-4.92-2.835l-3.203 3.392.004-.003zm-.803-.8l2.984-3.169-4.259-2.431S5.309 1.505 2.999.179l10.53 10.898h-.002z"/></symbol><symbol viewBox="0 0 511.999 511.999" id="monitor" xmlns="http://www.w3.org/2000/svg"><path d="M481.091 27.937H30.909C13.866 27.937 0 41.803 0 58.846v310.819c0 17.043 13.866 30.909 30.909 30.909h154.26v22.49c0 20.617-16.774 37.391-37.391 37.391h-33.997c-6.518 0-11.803 5.284-11.803 11.803 0 6.519 5.285 11.803 11.803 11.803h284.436c6.518 0 11.803-5.284 11.803-11.803 0-6.519-5.285-11.803-11.803-11.803h-33.998c-20.617 0-37.391-16.774-37.391-37.391v-22.489h154.26c17.043 0 30.91-13.866 30.91-30.909V58.846c.002-17.043-13.864-30.909-30.907-30.909zM195.92 460.457c8.046-10.336 12.857-23.308 12.857-37.391v-22.49h94.447v22.49c0 14.083 4.811 27.056 12.857 37.391H195.92zm292.474-90.791c0 4.027-3.276 7.304-7.304 7.304H30.909c-4.027 0-7.304-3.276-7.304-7.304v-62.033h464.789v62.033zm0-85.64H23.606V58.846c0-4.027 3.276-7.304 7.304-7.304h450.18c4.027 0 7.305 3.276 7.305 7.304v225.18z"/><circle cx="256.003" cy="342.305" r="12.738"/><path d="M276.238 109.254c-4.61-4.609-12.081-4.609-16.693 0l-83.414 83.414c-4.609 4.609-4.609 12.083 0 16.693a11.767 11.767 0 0 0 8.347 3.457c3.022 0 6.041-1.152 8.346-3.457l83.414-83.414c4.609-4.609 4.609-12.083 0-16.693zM325.678 157.593c-4.608-4.609-12.079-4.609-16.692-.001l-33.23 33.228c-4.609 4.61-4.609 12.084 0 16.693a11.765 11.765 0 0 0 8.346 3.457c3.02 0 6.041-1.152 8.346-3.457l33.23-33.228c4.609-4.609 4.609-12.083 0-16.692z"/></symbol><symbol viewBox="0 0 24 24" id="outline-arrow_back_ios" xmlns="http://www.w3.org/2000/svg"><path opacity=".87" fill="none" d="M0 0h24v24H0V0z"/><path d="M17.51 3.87L15.73 2.1 5.84 12l9.9 9.9 1.77-1.77L9.38 12l8.13-8.13z"/></symbol><symbol viewBox="0 0 24 24" id="outline-arrow_forward_ios" xmlns="http://www.w3.org/2000/svg"><path opacity=".87" fill="none" d="M24 24H0V0h24v24z"/><path d="M6.49 20.13l1.77 1.77 9.9-9.9-9.9-9.9-1.77 1.77L14.62 12l-8.13 8.13z"/></symbol><symbol viewBox="0 0 24 24" id="outline-check" xmlns="http://www.w3.org/2000/svg"><path fill="none" d="M0 0h24v24H0V0z"/><path d="M9 16.17L4.83 12l-1.42 1.41L9 19 21 7l-1.41-1.41L9 16.17z"/></symbol><symbol viewBox="0 0 24 24" id="outline-expand_less" xmlns="http://www.w3.org/2000/svg"><path fill="none" d="M0 0h24v24H0V0z"/><path d="M12 8l-6 6 1.41 1.41L12 10.83l4.59 4.58L18 14l-6-6z"/></symbol><symbol viewBox="0 0 24 24" id="outline-expand_more" xmlns="http://www.w3.org/2000/svg"><path opacity=".87" fill="none" d="M24 24H0V0h24v24z"/><path d="M16.59 8.59L12 13.17 7.41 8.59 6 10l6 6 6-6-1.41-1.41z"/></symbol><symbol viewBox="0 0 24 24" id="outline-search" xmlns="http://www.w3.org/2000/svg"><path fill="none" d="M0 0h24v24H0V0z"/><path d="M15.5 14h-.79l-.28-.27A6.471 6.471 0 0 0 16 9.5 6.5 6.5 0 1 0 9.5 16c1.61 0 3.09-.59 4.23-1.57l.27.28v.79l5 4.99L20.49 19l-4.99-5zm-6 0C7.01 14 5 11.99 5 9.5S7.01 5 9.5 5 14 7.01 14 9.5 11.99 14 9.5 14z"/></symbol></svg>