<?xml version="1.0" encoding="utf-8"?>
<!-- Generator: Adobe Illustrator 16.0.0, SVG Export Plug-In . SVG Version: 6.00 Build 0)  -->
<!DOCTYPE svg PUBLIC "-//W3C//DTD SVG 1.1//EN" "http://www.w3.org/Graphics/SVG/1.1/DTD/svg11.dtd">
<svg version="1.1" id="Layer_1" xmlns="http://www.w3.org/2000/svg" xmlns:xlink="http://www.w3.org/1999/xlink" x="0px" y="0px"
	 width="409.602px" height="399.438px" viewBox="0 0 409.602 399.438" enable-background="new 0 0 409.602 399.438"
	 xml:space="preserve">
<g>
	<defs>
		<rect id="SVGID_1_" x="-215" y="-98.28" width="841.89" height="595.28"/>
	</defs>
	<clipPath id="SVGID_2_">
		<use xlink:href="#SVGID_1_"  overflow="visible"/>
	</clipPath>
	<path clip-path="url(#SVGID_2_)" d="M403.77,118.391c-3.219,0-5.828,2.609-5.828,5.828v234.57c0,3.098-2.52,5.617-5.617,5.617
		H230.969c-3.223,0-5.832,2.609-5.832,5.828s2.609,5.828,5.832,5.828h161.359c9.523,0,17.273-7.746,17.273-17.273v-234.57
		C409.602,121,406.992,118.391,403.77,118.391"/>
	<path clip-path="url(#SVGID_2_)" d="M392.328,0H17.273C7.75,0,0,7.75,0,17.273v341.516c0,9.523,7.75,17.273,17.273,17.273H29.34
		c3.219,0,5.828-2.609,5.828-5.832c0-3.219-2.609-5.828-5.828-5.828H17.273c-3.097,0-5.613-2.52-5.613-5.613V17.273
		c0-3.097,2.516-5.617,5.613-5.617h375.055c3.094,0,5.613,2.52,5.613,5.617v69.809c0,3.219,2.609,5.828,5.828,5.828
		c3.223,0,5.832-2.609,5.832-5.828V17.273C409.602,7.75,401.852,0,392.328,0"/>
	<path clip-path="url(#SVGID_2_)" d="M300.801,229.5h-29.957c-6.25,0-11.336,5.086-11.336,11.336v29.957
		c0,6.25,5.086,11.332,11.336,11.332h29.957c6.25,0,11.336-5.082,11.336-11.332v-29.957
		C312.137,234.586,307.051,229.5,300.801,229.5 M300.477,270.469h-29.309V241.16h29.309V270.469z"/>
	<path clip-path="url(#SVGID_2_)" d="M365.805,229.5h-29.961c-6.246,0-11.332,5.086-11.332,11.336v29.957
		c0,6.25,5.086,11.332,11.332,11.332h29.961c6.25,0,11.332-5.082,11.332-11.332v-29.957
		C377.137,234.586,372.055,229.5,365.805,229.5 M365.48,270.469h-29.312V241.16h29.312V270.469z"/>
	<path clip-path="url(#SVGID_2_)" d="M300.801,293.125h-29.957c-6.25,0-11.336,5.086-11.336,11.336v29.957
		c0,6.25,5.086,11.336,11.336,11.336h29.957c6.25,0,11.336-5.086,11.336-11.336v-29.957
		C312.137,298.211,307.051,293.125,300.801,293.125 M300.477,334.094h-29.309v-29.309h29.309V334.094z"/>
	<path clip-path="url(#SVGID_2_)" d="M365.805,293.125h-29.961c-6.246,0-11.332,5.086-11.332,11.336v29.957
		c0,6.25,5.086,11.336,11.332,11.336h29.961c6.25,0,11.332-5.086,11.332-11.336v-29.957
		C377.137,298.211,372.055,293.125,365.805,293.125 M365.48,334.094h-29.312v-29.309h29.312V334.094z"/>
	<path clip-path="url(#SVGID_2_)" d="M377.137,49.75c0-9.258-7.527-16.785-16.781-16.785H49.247
		c-9.254,0-16.786,7.527-16.786,16.785v131.367c0,9.254,7.532,16.785,16.786,16.785h311.109c9.254,0,16.781-7.527,16.781-16.785
		V49.75z M365.48,181.117c0,2.828-2.301,5.125-5.125,5.125H49.247c-2.825,0-5.125-2.297-5.125-5.125V49.75
		c0-2.828,2.3-5.129,5.125-5.129h311.109c2.824,0,5.125,2.301,5.125,5.129V181.117z"/>
	<path clip-path="url(#SVGID_2_)" d="M229.781,245.57c0-8.859-7.207-16.07-16.07-16.07H48.535c-8.863,0-16.074,7.211-16.074,16.07
		c0,8.863,7.211,16.074,16.074,16.074h8.438l-10.43,97.453l-2.754,25.75c-0.094,0.863-0.094,1.719-0.019,2.559
		c0.003,0.059,0,0.117,0.007,0.172c0.012,0.098,0.032,0.195,0.047,0.293c0.317,2.574,1.399,4.98,3.184,6.965v0.004
		c0.004,0.004,0.012,0.008,0.015,0.012c2.266,2.512,5.477,4.098,8.989,4.484c0.558,0.062,1.121,0.102,1.695,0.102h146.832
		c4.172,0,8.07-1.676,10.699-4.602c2.469-2.75,3.613-6.297,3.219-9.992l-13.185-123.203h8.438
		C222.57,261.645,229.781,254.434,229.781,245.57 M48.535,249.984c-2.433,0-4.414-1.979-4.414-4.414c0-2.43,1.981-4.41,4.414-4.41
		h10.629l-0.945,8.824H48.535z M82.363,387.777H57.707c-0.871,0-1.609-0.266-2.027-0.734c-0.246-0.27-0.34-0.578-0.301-0.957
		l3.016-28.163c13.621,2.44,23.992,14.375,23.992,28.69C82.387,387,82.379,387.391,82.363,387.777 M94.016,387.777
		c0.011-0.387,0.027-0.777,0.027-1.164c0-20.324-14.938-37.223-34.406-40.301L70.891,241.16h120.464l11.254,105.152
		c-19.472,3.078-34.41,19.977-34.41,40.301c0,0.387,0.02,0.777,0.031,1.164H94.016z M206.863,386.086
		c0.043,0.379-0.055,0.688-0.298,0.957c-0.421,0.469-1.159,0.734-2.026,0.734h-24.66c-0.012-0.387-0.02-0.777-0.02-1.164
		c0-14.312,10.371-26.25,23.993-28.69L206.863,386.086z M204.023,249.984l-0.945-8.824h10.633c2.434,0,4.414,1.977,4.414,4.41
		c0,2.435-1.98,4.414-4.414,4.414H204.023z"/>
	<path clip-path="url(#SVGID_2_)" d="M186.25,295.801c-1.754-23.91-25.969-42.637-55.129-42.637
		c-29.16,0-53.375,18.727-55.129,42.637c-0.801,10.949,3.184,21.746,11.223,30.394c10.473,11.271,26.476,17.731,43.906,17.731
		c17.434,0,33.434-6.461,43.906-17.731C183.066,317.547,187.055,306.75,186.25,295.801 M166.488,318.258
		c-8.273,8.902-21.164,14.008-35.367,14.008c-14.203,0-27.094-5.105-35.367-14.008c-5.891-6.34-8.707-13.813-8.133-21.605
		c1.309-17.848,20.414-31.833,43.5-31.833c23.086,0,42.191,13.985,43.504,31.833C175.195,304.444,172.383,311.918,166.488,318.258"
		/>
	<path clip-path="url(#SVGID_2_)" d="M114.566,296.088h-7.814v-7.188h7.814v-4.073h4.557v4.073h5.21v-4.073h4.559v4.073h23.441
		v13.658c0,1.469-0.304,2.875-0.911,4.217c-0.609,1.342-1.52,2.516-2.735,3.522c-1.216,1.006-2.735,1.804-4.559,2.396
		c-1.822,0.591-3.971,0.886-6.446,0.886c-2.431,0-4.482-0.286-6.153-0.861c-1.672-0.575-3.051-1.365-4.136-2.372
		s-1.867-2.173-2.343-3.498c-0.478-1.326-0.717-2.756-0.717-4.289v-6.47h-5.21v10.83h-4.557V296.088z M131.496,302.558
		c0,0.479,0.065,0.95,0.196,1.413c0.13,0.463,0.389,0.878,0.781,1.246c0.39,0.367,0.976,0.654,1.758,0.863
		c0.782,0.206,1.824,0.312,3.125,0.312c1.259,0,2.279-0.105,3.061-0.312c0.782-0.209,1.377-0.488,1.791-0.839
		c0.412-0.353,0.684-0.76,0.813-1.223c0.131-0.464,0.196-0.951,0.196-1.461v-6.47h-11.721V302.558z"/>
	<path clip-path="url(#SVGID_2_)" d="M113.373,92.552c2.891,1.47,6.173,3.92,6.173,7.203c0,1.616-0.636,2.939-1.812,4.164
		c-0.882,0.931-2.401,1.666-3.92,1.666c-1.47,0-2.597-0.441-4.41-1.764c-2.057-1.47-3.723-2.205-6.124-2.205
		c-2.94,0.049-5.39,1.127-7.202,3.332c-1.96,2.45-2.842,5.831-2.842,11.171c0,5.341,0.882,8.819,2.842,11.269
		c1.861,2.254,4.164,3.332,7.202,3.332c2.401,0,4.067-0.637,6.124-2.156c1.715-1.274,2.94-1.862,4.41-1.862
		c1.519,0,3.038,0.784,3.92,1.715c1.176,1.176,1.812,2.548,1.812,4.165c0,3.234-3.233,5.635-6.173,7.251
		c-2.989,1.617-5.978,2.45-10.093,2.45c-10.191,0-22.783-5.487-22.783-26.164c0-20.676,12.641-26.066,22.881-26.066
		C107.494,90.053,110.433,90.837,113.373,92.552"/>
	<path clip-path="url(#SVGID_2_)" d="M130.132,98.971c0-3.086,0.147-4.312,0.833-5.684c0.931-1.861,2.939-3.037,5.537-3.037
		c2.596,0,4.605,1.176,5.536,3.037c0.686,1.372,0.833,2.598,0.833,5.684v10.975h16.511V98.971c0-3.086,0.147-4.312,0.833-5.684
		c0.931-1.861,2.94-3.037,5.537-3.037c2.597,0,4.606,1.176,5.537,3.037c0.685,1.372,0.832,2.598,0.832,5.684v34.396
		c0,3.086-0.147,4.311-0.832,5.683c-0.931,1.861-2.94,3.038-5.537,3.038c-2.597,0-4.606-1.177-5.537-3.038
		c-0.686-1.372-0.833-2.597-0.833-5.683v-12.152h-16.511v12.152c0,3.086-0.147,4.311-0.833,5.683
		c-0.931,1.861-2.94,3.038-5.536,3.038c-2.598,0-4.606-1.177-5.537-3.038c-0.686-1.372-0.833-2.597-0.833-5.683V98.971z"/>
	<path clip-path="url(#SVGID_2_)" d="M185.696,130.868l6.517-10.436c-4.605-2.842-7.398-7.84-7.398-13.769
		c0-9.407,7.006-16.021,16.952-16.021h17.001c1.862,0,4.214,0,5.978,1.764c1.764,1.764,1.764,4.115,1.764,5.977v34.984
		c0,3.086-0.146,4.311-0.833,5.683c-0.931,1.861-2.939,3.038-5.536,3.038s-4.605-1.177-5.536-3.038
		c-0.687-1.372-0.833-2.597-0.833-5.683v-9.947h-9.064l-8.672,13.915c-1.96,3.136-3.332,4.753-6.076,4.753
		c-1.127,0-2.254-0.343-3.43-1.078c-1.96-1.225-2.988-2.989-2.988-4.851C183.541,134.591,184.178,133.316,185.696,130.868
		 M203.923,113.474h9.849v-12.641h-9.75c-4.164,0-6.712,2.548-6.712,6.321C197.309,110.926,199.905,113.474,203.923,113.474"/>
	<path clip-path="url(#SVGID_2_)" d="M274.971,101.47c-1.225,0.637-2.352,0.735-5.242,0.735h-6.859v31.161
		c0,3.087-0.147,4.312-0.833,5.684c-0.932,1.861-2.94,3.038-5.537,3.038s-4.605-1.177-5.536-3.038
		c-0.687-1.372-0.833-2.597-0.833-5.684v-31.161h-6.859c-2.891,0-4.018-0.098-5.243-0.735c-1.665-0.882-2.792-2.646-2.792-5.047
		c0-2.4,1.127-4.164,2.792-5.046c1.226-0.637,2.353-0.735,5.243-0.735h26.458c2.891,0,4.018,0.098,5.242,0.735
		c1.666,0.882,2.793,2.646,2.793,5.046C277.764,98.824,276.637,100.588,274.971,101.47"/>
	<path clip-path="url(#SVGID_2_)" d="M287.321,93.288c0.931-1.862,2.939-3.038,5.536-3.038s4.605,1.176,5.537,3.038
		c0.686,1.372,0.833,2.597,0.833,5.683v10.094h11.759c10.093,0,17.051,6.663,17.051,16.266c0,9.604-6.958,16.365-17.051,16.365
		h-16.757c-1.861,0-4.214,0-5.978-1.764c-1.764-1.764-1.764-4.115-1.764-5.977V98.97C286.488,95.884,286.635,94.659,287.321,93.288
		 M308.487,131.651c4.41,0,7.056-1.96,7.056-6.271c0-4.312-2.646-6.272-7.056-6.272h-9.26v12.543H308.487z"/>
</g>
</svg>
