<?xml version="1.0" encoding="utf-8"?>
<!-- Generator: Adobe Illustrator 16.0.0, SVG Export Plug-In . SVG Version: 6.00 Build 0)  -->
<!DOCTYPE svg PUBLIC "-//W3C//DTD SVG 1.1//EN" "http://www.w3.org/Graphics/SVG/1.1/DTD/svg11.dtd">
<svg version="1.1" id="Layer_1" xmlns="http://www.w3.org/2000/svg" xmlns:xlink="http://www.w3.org/1999/xlink" x="0px" y="0px"
	 width="381px" height="382px" viewBox="0 0 381 382" enable-background="new 0 0 381 382" xml:space="preserve">
<g>
	<defs>
		<rect id="SVGID_1_" x="0.06" y="0.04" width="380.94" height="381.96"/>
	</defs>
	<clipPath id="SVGID_2_">
		<use xlink:href="#SVGID_1_"  overflow="visible"/>
	</clipPath>
	<path clip-path="url(#SVGID_2_)" d="M309.199,310.039c-31.84,31.84-74.16,49.36-119.121,49.36
		c-44.957,0-87.277-17.521-119.117-49.36c-65.68-65.679-65.68-172.558,0-238.238c31.84-31.84,74.16-49.359,119.117-49.359
		c44.961,0,87.281,17.519,119.121,49.359C374.879,137.481,374.879,244.36,309.199,310.039z M324.48,56.52
		C288.559,20.602,240.879,0.84,190.078,0.84c-50.797,0-98.476,19.762-134.398,55.68C19.762,92.442,0,140.121,0,190.918
		c0,50.801,19.762,98.481,55.68,134.402C91.602,361.238,139.281,381,190.078,381c50.801,0,98.48-19.762,134.402-55.68
		c35.918-35.921,55.68-83.602,55.68-134.402C380.16,140.121,360.398,92.442,324.48,56.52z"/>
</g>
<path d="M273.84,107.16c-4.238-4.242-11.039-4.242-15.281,0l-68.48,68.481l-68.476-68.481c-4.243-4.242-11.043-4.242-15.282,0
	c-4.242,4.239-4.242,11.039,0,15.282l68.481,68.476l-68.481,68.481c-4.242,4.241-4.242,11.043,0,15.28
	c2.078,2.082,4.879,3.199,7.602,3.199c2.719,0,5.519-1.039,7.598-3.199l68.48-68.48l68.48,68.48
	c2.078,2.082,4.879,3.199,7.598,3.199c2.801,0,5.523-1.039,7.602-3.199c4.242-4.237,4.242-11.039,0-15.28l-68.32-68.481
	l68.48-68.476C278.078,118.199,278.078,111.399,273.84,107.16z"/>
</svg>
