<?xml version="1.0" encoding="utf-8"?>
<!-- Generator: Adobe Illustrator 16.0.0, SVG Export Plug-In . SVG Version: 6.00 Build 0)  -->
<!DOCTYPE svg PUBLIC "-//W3C//DTD SVG 1.1//EN" "http://www.w3.org/Graphics/SVG/1.1/DTD/svg11.dtd">
<svg version="1.1" id="Layer_1" xmlns="http://www.w3.org/2000/svg" xmlns:xlink="http://www.w3.org/1999/xlink" x="0px" y="0px"
	 width="94px" height="94.01px" viewBox="0 0 94 94.01" enable-background="new 0 0 94 94.01" xml:space="preserve">
<path fill-rule="evenodd" clip-rule="evenodd" d="M65.586,93.916c-1.5-0.435-3.021-2.22-3.341-3.925
	c-0.209-1.11,0.046-1.88,1.637-4.958c6.428-12.435,9.222-23.878,9.222-37.769c0-13.423-2.475-23.868-8.618-36.386
	c-1.319-2.687-2.398-5.182-2.398-5.543c0-1.332,1.114-3.263,2.321-4.021c1.655-1.038,4.429-0.844,5.757,0.402
	c0.51,0.48,1.836,2.656,2.945,4.836c4.396,8.633,7.409,18.104,8.896,27.963c0.921,6.101,1.104,17.665,0.368,23.25
	c-1.356,10.304-4.076,19.497-8.431,28.504c-2.632,5.444-4.283,7.685-5.667,7.685c-0.276,0-0.728,0.068-1.002,0.153
	C66.999,94.19,66.239,94.105,65.586,93.916 M47.693,84.555c-2.301-0.669-3.961-3.493-3.296-5.608
	c0.161-0.513,1.245-2.872,2.407-5.243c4.924-10.041,6.973-20.806,5.969-31.374c-0.825-8.684-2.381-14.16-6.301-22.173
	c-2.631-5.376-2.754-6.209-1.223-8.374c1.453-2.058,5.082-2.392,6.989-0.643c1.321,1.212,5.431,9.795,7.018,14.656
	c5.25,16.086,4.449,33.354-2.279,49.156C53.53,83.047,51.111,85.55,47.693,84.555 M29.242,75.062
	c-1.423-0.642-2.646-2.145-2.979-3.661c-0.203-0.923,0.146-1.944,1.832-5.361c6.199-12.55,6.265-24.64,0.205-36.9
	c-2.66-5.384-2.719-6.456-0.469-8.579c1.11-1.048,1.582-1.233,3.143-1.233c2.617,0,3.974,1.315,6.312,6.118
	c3.597,7.387,5.069,13.796,5.056,22.007c-0.012,8.44-1.387,14.234-5.23,22.024c-2.2,4.46-3.288,5.639-5.49,5.94
	C30.949,75.509,29.879,75.349,29.242,75.062 M12.024,66.22c-1.126-0.467-2.413-1.999-2.795-3.332
	c-0.427-1.489-0.078-2.672,1.614-5.452c2.175-3.577,2.681-5.496,2.681-10.171c0-4.674-0.506-6.594-2.681-10.171
	c-0.737-1.212-1.479-2.666-1.646-3.228c-0.699-2.358,1.264-5.247,3.902-5.742c2.236-0.42,3.773,0.578,5.828,3.788
	c5.955,9.294,5.955,21.709-0.002,30.925C16.825,66.088,14.482,67.237,12.024,66.22"/>
<rect x="-373.945" y="-250.636" fill="none" width="841.89" height="595.28"/>
</svg>
